<?xml version="1.0"?>
<svg xmlns="http://www.w3.org/2000/svg" id="Capa_1" enable-background="new 0 0 512 512" height="512px" viewBox="0 0 512 512" width="512px" class=""><g transform="matrix(-1 0 0 1 512 0)"><g><path d="m76 121c0 32.313 20.967 59.258 44.799 59.716 4.991.097 10.109-.97 15.187-3.393l.029.015c5.508 2.593 10.957 3.911 16.23 3.911 26.752 0 43.755-33.505 43.755-60.249 0-35.728-28.579-56.338-59.985-41.323l-.029-.015c-31.832-15.044-60.001 6.094-59.986 41.338z" data-original="#000000" class="active-path" data-old_color="#000000" fill="#FF6490"/><path d="m212.177 74.689c17.425-13.733 28.823-35.779 28.823-59.689v-15h-15c-30.282 0-56.213 19.038-68.057 44.874 22.77.467 42.043 11.865 54.234 29.815z" data-original="#000000" class="active-path" data-old_color="#000000" fill="#FF6490"/><path d="m59.85 74.713c1.558-2.292 2.992-4.689 4.797-6.769 12.658-14.586 30.185-22.643 49.427-23.038-11.835-25.854-37.779-44.906-68.074-44.906h-15v15c0 23.921 11.409 45.98 28.85 59.713z" data-original="#000000" class="active-path" data-old_color="#000000" fill="#FF6490"/><path d="m221.833 148.808c-9.413 33.521-34.894 62.441-69.587 62.441-5.508 0-11.03-.732-16.523-2.183-4.731 1.099-9.521 1.655-14.355 1.655-21.259-.406-40.23-10.922-53.84-27.458l-58.739 57.737h490.641z" data-original="#000000" class="active-path" data-old_color="#000000" fill="#FF6490"/><path d="m0 512h61v-181h451v-60h-512z" data-original="#000000" class="active-path" data-old_color="#000000" fill="#FF6490"/><path d="m91 361h421v60h-421z" data-original="#000000" class="active-path" data-old_color="#000000" fill="#FF6490"/><path d="m91 451h421v61h-421z" data-original="#000000" class="active-path" data-old_color="#000000" fill="#FF6490"/></g></g> </svg>
